<svg width="420" height="520" viewBox="0 0 420 520" xmlns="http://www.w3.org/2000/svg" role="img" aria-label="Robotic person illustration">
  <defs>
    <linearGradient id="metal" x1="0" y1="0" x2="0" y2="1">
      <stop offset="0%" stop-color="#d8e4ff"/>
      <stop offset="100%" stop-color="#8ba3d3"/>
    </linearGradient>
    <linearGradient id="accent" x1="0" y1="0" x2="1" y2="1">
      <stop offset="0%" stop-color="#22d3ee"/>
      <stop offset="100%" stop-color="#a78bfa"/>
    </linearGradient>
  </defs>

  <rect width="420" height="520" rx="22" fill="#0f1428"/>

  <g transform="translate(60,40)">
    <rect x="70" y="20" width="160" height="130" rx="22" fill="url(#metal)" stroke="#4f6ea9" stroke-width="4"/>
    <rect x="94" y="52" width="112" height="46" rx="14" fill="#1b264a"/>
    <circle cx="124" cy="75" r="10" fill="#22d3ee"/>
    <circle cx="176" cy="75" r="10" fill="#a78bfa"/>
    <rect x="136" y="108" width="28" height="8" rx="4" fill="#4f6ea9"/>

    <rect x="110" y="152" width="80" height="24" rx="8" fill="#90a8d8"/>
    <rect x="56" y="180" width="188" height="150" rx="26" fill="url(#metal)" stroke="#4f6ea9" stroke-width="4"/>

    <rect x="20" y="204" width="36" height="92" rx="16" fill="#9db3dd"/>
    <rect x="244" y="204" width="36" height="92" rx="16" fill="#9db3dd"/>

    <rect x="90" y="334" width="46" height="98" rx="18" fill="#9db3dd"/>
    <rect x="164" y="334" width="46" height="98" rx="18" fill="#9db3dd"/>

    <circle cx="38" cy="250" r="10" fill="url(#accent)"/>
    <circle cx="262" cy="250" r="10" fill="url(#accent)"/>
    <circle cx="113" cy="382" r="10" fill="url(#accent)"/>
    <circle cx="187" cy="382" r="10" fill="url(#accent)"/>

    <path d="M112 230h76" stroke="#4f6ea9" stroke-width="6" stroke-linecap="round"/>
    <path d="M130 260h40" stroke="#4f6ea9" stroke-width="6" stroke-linecap="round"/>
  </g>
</svg>
